<svg xmlns="http://www.w3.org/2000/svg" width="362" height="98" fill="none" xmlns:v="https://vecta.io/nano"><path d="M60.25 2.875c-.25.417-.375.75-.375 1 0 .167-.042.375-.125.625-.083.167-.208.375-.375.625-.083.25-.375.583-.875 1-.167.5-.292.958-.375 1.375 0 .333.083.792.25 1.375-.25.167-.5.292-.75.375l-.5.25c-.083.083-.417.167-1 .25-.583 0-1.208.042-1.875.125S52.958 10 52.375 10h-1c-1.25-.417-2.125-.542-2.625-.375s-.917.042-1.25-.375c-1.583.333-3.292.5-5.125.5s-3.458.333-4.875 1c-.25.333-.292.667-.125 1 .167.25.292.542.375.875 0 .333-.083.667-.25 1-.083.25-.083.583 0 1 .417 1 .542 1.708.375 2.125-.083.417.083.75.5 1l-.5 1.875c-.083.5 0 .833.25 1-.167.5-.208 1-.125 1.5s.208 1 .375 1.5l-.625 2.625c-.167 1-.042 1.833.375 2.5-.083 1.417-.208 2.458-.375 3.125-.167.583-.25 1.208-.25 1.875-.083.833-.042 1.417.125 1.75l.375.625v1c.083.417.083.875 0 1.375a6.36 6.36 0 0 1-.125 1.25c-.083.417-.208.667-.375.75a3.67 3.67 0 0 1 .25 1.375c.083.417 0 .833-.25 1.25.417 1.333.542 2.542.375 3.625l-.375 3.125.125 3.125c.167.917.5 1.542 1 1.875-.417.417-.542.958-.375 1.625.167.583.125 1.167-.125 1.75v4.25c0 .833.042 1.375.125 1.625a1.11 1.11 0 0 1 .125.5c0 .583-.083 1.125-.25 1.625-.083.417-.083.917 0 1.5.167 1.083.333 1.75.5 2 .167.167.25.375.25.625l-.125 3.25c0 1.167-.208 2.167-.625 3 .25.75.5 1.167.75 1.25s.25.542 0 1.375c.333.5.542 1 .625 1.5s.375.958.875 1.375a2.16 2.16 0 0 0 .125 1.25c.167.417.125.833-.125 1.25 0 .25.083.458.25.625.25.167.375.417.375.75a4.97 4.97 0 0 0-.625.75c-.167.25-.167.583 0 1-.417-.167-.708-.208-.875-.125-.167 0-.375.083-.625.25a6.1 6.1 0 0 0-.625.375c-.167.083-.417.125-.75.125-.333.25-.625.542-.875.875-.25.25-.542.458-.875.625-.75.083-1.417.042-2-.125-.5-.167-.958-.625-1.375-1.375-.167-.167-.417-.333-.75-.5-.25-.167-.458-.375-.625-.625-.25-.333-.417-.833-.5-1.5l-.25-2.125V81.25 79.5a6.36 6.36 0 0 0-.125-1.25A8.42 8.42 0 0 1 30 76.875l.25-1.5c.083-.5-.167-.958-.75-1.375.167-.417.167-.792 0-1.125l-.25-1.25c0-.333.042-.625.125-.875.167-.25.208-.5.125-.75 0-.333-.083-.583-.25-.75a2.36 2.36 0 0 1-.125-.75c-.083-.417-.083-.75 0-1 .083-.333.125-.708.125-1.125.083-.333.083-.625 0-.875-.083-.333-.125-.708-.125-1.125l-.25-6.125.375-6.25c.167-.667.25-1.167.25-1.5a2.48 2.48 0 0 0-.25-1.125 6.36 6.36 0 0 1-.125-1.25c-.083-.417-.083-.833 0-1.25s-.083-.708-.5-.875c.583-.417.75-1.208.5-2.375L28.875 41c0-.5.042-1 .125-1.5a8.42 8.42 0 0 0 .125-1.375l-.25-2.75c0-1 .083-1.958.25-2.875 0-.583.042-1.125.125-1.625.167-.5.25-1.042.25-1.625.083-.583.042-1.125-.125-1.625-.083-.583-.125-1.167-.125-1.75A15.17 15.17 0 0 0 29.375 24c.083-.583-.083-1.167-.5-1.75a2.26 2.26 0 0 0 .375-1.625c0-.667-.083-1.333-.25-2-.083-.667-.208-1.333-.375-2-.083-.667-.083-1.292 0-1.875 0-.417-.167-.75-.5-1a2.75 2.75 0 0 1-.5-1.125c-.083-.583-.208-.917-.375-1s-.458-.292-.875-.625a4.11 4.11 0 0 0-1 .125c-.333 0-.625.125-.875.375-1-.333-1.708-.458-2.125-.375-.333.083-.583.208-.75.375-.917-.167-2.042-.208-3.375-.125H14 9.75c-1.25 0-2 .125-2.25.375-.167-.5-.417-.625-.75-.375-.417.167-.792.208-1.125.125l-2-1.625c-.667-.5-1.458-.833-2.375-1-.083-.5-.208-1.042-.375-1.625-.25-.583-.292-1.083-.125-1.5l1.625-2.125c.167-.417.375-.833.625-1.25h1.75c.583-.083 1.083-.25 1.5-.5.667.417 1.458.583 2.375.5.833-.083 1.5.167 2 .75H12c.75-.083 1.5-.083 2.25 0 .833 0 1.542.083 2.125.25.667.083 1.083.208 1.25.375.25-.083.667-.167 1.25-.25.667-.167 1.333-.292 2-.375S22.167 3 22.75 3s1 .083 1.25.25a2.77 2.77 0 0 0 .875-.125 1.54 1.54 0 0 1 .875-.25c.833.083 1.333.083 1.5 0 .167-.167.375-.25.625-.25 1.083.167 1.833.208 2.25.125.5-.167.958-.292 1.375-.375l2.75.125A12.36 12.36 0 0 0 36 2.375c.583-.083 1.125-.208 1.625-.375a9.87 9.87 0 0 1 1.5-.375c.417 0 .792.042 1.125.125a6.36 6.36 0 0 0 1.25.125l1.125-.25a2.48 2.48 0 0 1 1.125-.25A6.36 6.36 0 0 1 45 1.5c.5.083.958.125 1.375.125a2.36 2.36 0 0 0 .75-.125c.25-.167.542-.292.875-.375 1.417.167 2.417.167 3 0s1.167-.25 1.75-.25a3.67 3.67 0 0 1 1.375.25c.417.083.833.083 1.25 0 1.333-.083 2.292.167 2.875.75s1.25.917 2 1zm32 64.5a7.46 7.46 0 0 1-.375 2.375c-.25.667-.292 1.417-.125 2.25-.583 1.167-.792 1.792-.625 1.875.167 0 .208.167.125.5-.417.167-.625.417-.625.75.083.333.042.625-.125.875-.5 1.667-1.208 3.208-2.125 4.625.167.167.25.417.25.75v.875a8.75 8.75 0 0 1-1.25.625c-.333.083-.708.208-1.125.375 0 .833-.167 1.5-.5 2s-.667 1.083-1 1.75c-1.083.25-1.875.75-2.375 1.5-.5.667-1.125 1.292-1.875 1.875l-3.875.875-2.875.375c-.417 0-.708.083-.875.25-.083.167-.292.333-.625.5-.667.167-1.708.25-3.125.25s-2.5.083-3.25.25c-1.417 0-2.333-.125-2.75-.375s-.958-.375-1.625-.375c-.667-.833-1.167-1.25-1.5-1.25-.25 0-.458-.083-.625-.25-.333-.25-.625-.542-.875-.875a9.39 9.39 0 0 0-.875-1c-.167-.167-.333-.5-.5-1l-.5-1.5c-.167-.5-.333-.917-.5-1.25-.167-.417-.375-.625-.625-.625.167-.5.125-.917-.125-1.25-.25-.417-.375-.875-.375-1.375-.667-1.417-1.125-2.625-1.375-3.625-.167-1.083-.25-2.083-.25-3a2.36 2.36 0 0 1 .125-.75 2.36 2.36 0 0 0 .125-.75 1.54 1.54 0 0 0-.25-.875c-.167-.333-.25-.667-.25-1l.375-3c.25-.917.208-1.917-.125-3 .25-.417.458-.917.625-1.5.25-.583.292-1.125.125-1.625.75-.417 1.25-1.042 1.5-1.875a8.66 8.66 0 0 0 .375-2.5c.333-.083.542-.25.625-.5.083-.333.208-.625.375-.875s.333-.458.5-.625.292-.375.375-.625c.167-.167.208-.375.125-.625 0-.333.042-.583.125-.75.5-.583.833-1.083 1-1.5.25-.5.583-.875 1-1.125-.083-.5-.042-.75.125-.75.25-.083.458-.292.625-.625l.75-.375c.167-.167.458-.208.875-.125.417-.083.667-.25.75-.5.167-.333.5-.5 1-.5.167-.167.292-.333.375-.5.167-.25.333-.458.5-.625.5-.083.833.042 1 .375l.75.75c.417 0 .708-.125.875-.375.25-.333.5-.375.75-.125.583.167 1.083.125 1.5-.125.5-.25.958-.208 1.375.125 1.5-.583 2.458-.792 2.875-.625.5.083 1.042.125 1.625.125 1.833-.083 3.292.083 4.375.5a7.75 7.75 0 0 0 3.375.5c1.333.833 2.042 1.542 2.125 2.125.583.25.958.542 1.125.875l1 1c.167.167.417.25.75.25s.583.083.75.25c-.417 1.25-.417 2.042 0 2.375.5.25.542.5.125.75.167.333.375.583.625.75.25.083.458.25.625.5-.167.833-.125 1.542.125 2.125.333.5.542 1.042.625 1.625 0 .417-.083.875-.25 1.375-.083.417-.083.833 0 1.25.083.583.25 1.167.5 1.75.25.5.417 1.042.5 1.625zm-8.875 1.5c-.083-.417-.292-.583-.625-.5-.25 0-.375-.25-.375-.75 0-1.25-.167-2.375-.5-3.375.25-.25.375-.667.375-1.25s-.042-1.167-.125-1.75c-.083-.667-.208-1.25-.375-1.75l-.375-1a2.64 2.64 0 0 1-1.25-.875c-.25-.5-.625-.833-1.125-1-.167-.083-.417-.083-.75 0-.25.083-.458.083-.625 0-.583-.667-1.167-.917-1.75-.75s-1.208.167-1.875 0c-.25 0-.542-.083-.875-.25-.25-.25-.458-.333-.625-.25-.75.5-1.375.708-1.875.625a2.16 2.16 0 0 0-1.25.125c-.417.167-.833.458-1.25.875-.333.333-.792.542-1.375.625l-1.125 1.625c-.333.583-.333 1.208 0 1.875-.917.417-1.5.875-1.75 1.375l-.75 1.5a3.89 3.89 0 0 0-.5 1.375c-.083.5.042 1 .375 1.5-.75 1.083-1.083 2.333-1 3.75.083 1.333-.167 2.5-.75 3.5.5 1 .833 1.917 1 2.75l.75 2.25 1.125 2.25c.417.667 1.083 1.458 2 2.375.417-.083.875-.042 1.375.125s1 .25 1.5.25c.667 0 1.333-.083 2-.25.75-.25 1.417-.542 2-.875a11.06 11.06 0 0 0 2.875-.625c.917-.417 1.583-1.167 2-2.25.5-.417.917-.833 1.25-1.25A10.72 10.72 0 0 1 80.5 77.5c.5-1 .75-1.667.75-2 .083-.333.292-.625.625-.875.083-.417.042-.667-.125-.75-.083-.167-.125-.417-.125-.75.583-.417.917-1.042 1-1.875.167-.917.417-1.708.75-2.375zm57.5 25.25c-.083.417-.333 1.042-.75 1.875-.333.833-.833 1.167-1.5 1-.583-.167-1.25-.25-2-.25l-1.875.25a2.45 2.45 0 0 0-1.125-1.125 8.75 8.75 0 0 1-1.25-.625c-.417-.167-.792-.417-1.125-.75-.25-.25-.375-.75-.375-1.5a13.16 13.16 0 0 1-.75-1.125c-.167-.333-.458-.583-.875-.75.167-.417.125-.708-.125-.875-.25-.25-.458-.5-.625-.75a10.89 10.89 0 0 1-.5-2.25c-.083-.833-.458-1.625-1.125-2.375-.5-.167-.833-.083-1 .25-.167.25-.417.5-.75.75-.667.583-1.042 1-1.125 1.25 0 .25-.167.458-.5.625-.667.417-1.333.667-2 .75-1.25.833-2.25 1.417-3 1.75l-2.25.875c-1.083 0-2.125-.208-3.125-.625-1-.5-2.042-.625-3.125-.375-.25-.417-.708-.667-1.375-.75s-1.083-.458-1.25-1.125l-1-.25-.875-.25a2.87 2.87 0 0 0-1-1c-.333-.333-.625-.708-.875-1.125v-1.5a2.87 2.87 0 0 0-1-1c-.333-.333-.667-.708-1-1.125-.167-.167-.25-.417-.25-.75 0-.417-.208-.625-.625-.625a4.69 4.69 0 0 0-.5-2.125c-.333-.75-.5-1.5-.5-2.25-.083-.667-.083-1.292 0-1.875.083-.667-.083-1.292-.5-1.875.167-1 .25-2.083.25-3.25l.125-3.625.375-3.375c.25-1.167.708-2.167 1.375-3-.083-.417-.208-.75-.375-1-.167-.333-.25-.708-.25-1.125.167-.167.375-.25.625-.25h.75c.917-1.833 2.125-3.5 3.625-5 .667-1.333 1.25-2.167 1.75-2.5s.875-.875 1.125-1.625H110c.667-.417 1.208-.833 1.625-1.25s1.083-.625 2-.625c.333-.167.75-.5 1.25-1l3 .125c1.083 0 2.083-.125 3-.375.5.583 1.083.833 1.75.75a4.06 4.06 0 0 1 2 0c.833.167 1.583.458 2.25.875s1.458.667 2.375.75c.667-.417.958-1.042.875-1.875 0-.833-.208-1.542-.625-2.125.333-.667.375-1.333.125-2-.167-.75-.208-1.458-.125-2.125 0-.25.042-.458.125-.625.167-.25.292-.542.375-.875.25-1.167.25-2.167 0-3-.25-.917-.333-1.958-.25-3.125a10.41 10.41 0 0 1 .375-2.75c.333-1 .208-1.875-.375-2.625a6.59 6.59 0 0 0 .375-1.375c.167-.583.417-1.083.75-1.5-.167-.5-.208-.958-.125-1.375l.5-1.375c.167-.5.292-1 .375-1.5s0-1-.25-1.5L133 16.125c.583-.333 1.083-.75 1.5-1.25a4.88 4.88 0 0 1 1.125.625 7.12 7.12 0 0 0 1.25.375 2.7 2.7 0 0 1 .25 1.625l-.25 1.75a11.59 11.59 0 0 0-.125 1.625c0 .417.208.75.625 1-.417.75-.542 1.542-.375 2.375a7.46 7.46 0 0 1 .375 2.375 25.21 25.21 0 0 1-.125 2.5 21.61 21.61 0 0 0-.125 2.375v1.625c.083.5.125 1 .125 1.5l-.25.75c0 .167-.042.375-.125.625 0 .583.25 1.125.75 1.625-.25.333-.333.792-.25 1.375.083.5-.083.875-.5 1.125 0 .333.083.583.25.75.25.083.417.292.5.625.083.5.042 1.083-.125 1.75s.042 1.125.625 1.375c-.417.667-.5 1.375-.25 2.125.25.667.167 1.25-.25 1.75.167.667.417 1.208.75 1.625-.167.25-.333.583-.5 1l-.25 1.125c-.167.333-.125.625.125.875s.375.542.375.875c-.5 1.5-.625 2.625-.375 3.375.333.75.542 1.292.625 1.625a3.69 3.69 0 0 1-.125.875 2.78 2.78 0 0 0-.125.875 24.67 24.67 0 0 0-.25 3.5c0 1.083-.083 2.208-.25 3.375 0 .167-.125.542-.375 1.125-.167.5-.125.708.125.625-.5 1.167-.667 2-.5 2.5s-.083 1.167-.75 2l.5 2.5c.167.75.208 1.542.125 2.375a3.69 3.69 0 0 1-.125.875l-.25.75c0 .417.125.75.375 1 .25.167.458.375.625.625-.167.5-.167 1 0 1.5A11.5 11.5 0 0 1 138 85c.25.5.417 1 .5 1.5.083.417-.042.833-.375 1.25l.625 1.5c.25.583.583 1 1 1.25l.75 1.75c.333.833.458 1.458.375 1.875zm-11.875-27c-.583-.25-.833-.625-.75-1.125a4.71 4.71 0 0 0 .25-1.5c-.167-1.5-.167-2.792 0-3.875.25-1.083.167-1.958-.25-2.625.5-.417.458-.958-.125-1.625-.5-.667-.833-1.208-1-1.625l-2.25-.875c-.5-.25-1.292-.292-2.375-.125-.417-.583-.917-.917-1.5-1-.5-.167-1-.208-1.5-.125a7.03 7.03 0 0 0-1.375.125c-.417 0-.792-.083-1.125-.25-.75.75-1.583 1.417-2.5 2-.833.583-1.375 1.458-1.625 2.625-.417.167-.833.5-1.25 1-.333.417-.458.875-.375 1.375-.667.333-1.167.875-1.5 1.625-.333.667-.583 1.458-.75 2.375a24.69 24.69 0 0 0-.375 2.625c-.083.917-.25 1.667-.5 2.25.167.167.25.417.25.75 0 .25.083.458.25.625-.25-.083-.417-.042-.5.125v.5.5c0 .083-.083.125-.25.125.083.667.125 1.333.125 2 .083.583.042 1.208-.125 1.875.5.417.833 1 1 1.75l.5 2a10.56 10.56 0 0 1 1.875 1.5c.583.583 1.208.958 1.875 1.125.333.167.583.208.75.125a2.36 2.36 0 0 1 .75-.125 1.57 1.57 0 0 1 .625.375 2.36 2.36 0 0 0 .75.125c.917.083 1.417 0 1.5-.25s.333-.458.75-.625l2-1 1.125-.5c.667-.75 1.125-1.208 1.375-1.375.25-.25.583-.333 1-.25.083-.75.458-1.167 1.125-1.25.75-.167 1.417-.25 2-.25.25-.833.25-1.708 0-2.625.583-.25.75-.542.5-.875a2.16 2.16 0 0 1-.125-1.25c.417-.75.583-1.25.5-1.5s-.083-.458 0-.625c.667-.833 1-1.375 1-1.625s.083-.458.25-.625zm56.75.25a7.46 7.46 0 0 1-.375 2.375c-.25.667-.292 1.417-.125 2.25-.583 1.167-.792 1.792-.625 1.875.167 0 .208.167.125.5-.417.167-.625.417-.625.75.083.333.042.625-.125.875-.5 1.667-1.208 3.208-2.125 4.625.167.167.25.417.25.75v.875a8.75 8.75 0 0 1-1.25.625 8.89 8.89 0 0 0-1.125.375c0 .833-.167 1.5-.5 2a16.34 16.34 0 0 0-1 1.75c-1.083.25-1.875.75-2.375 1.5-.5.667-1.125 1.292-1.875 1.875l-3.875.875-2.875.375c-.417 0-.708.083-.875.25-.083.167-.292.333-.625.5-.667.167-1.708.25-3.125.25s-2.5.083-3.25.25c-1.417 0-2.333-.125-2.75-.375s-.958-.375-1.625-.375c-.667-.833-1.167-1.25-1.5-1.25-.25 0-.458-.083-.625-.25-.333-.25-.625-.542-.875-.875s-.542-.667-.875-1c-.167-.167-.333-.5-.5-1l-.5-1.5c-.167-.5-.333-.917-.5-1.25-.167-.417-.375-.625-.625-.625.167-.5.125-.917-.125-1.25-.25-.417-.375-.875-.375-1.375-.667-1.417-1.125-2.625-1.375-3.625-.167-1.083-.25-2.083-.25-3a2.37 2.37 0 0 1 .125-.75 2.37 2.37 0 0 0 .125-.75c0-.333-.083-.625-.25-.875-.167-.333-.25-.667-.25-1l.375-3c.25-.917.208-1.917-.125-3 .25-.417.458-.917.625-1.5.25-.583.292-1.125.125-1.625.75-.417 1.25-1.042 1.5-1.875a8.66 8.66 0 0 0 .375-2.5c.333-.083.542-.25.625-.5.083-.333.208-.625.375-.875s.333-.458.5-.625a1.56 1.56 0 0 0 .375-.625c.167-.167.208-.375.125-.625 0-.333.042-.583.125-.75.5-.583.833-1.083 1-1.5.25-.5.583-.875 1-1.125-.083-.5-.042-.75.125-.75.25-.083.458-.292.625-.625l.75-.375c.167-.167.458-.208.875-.125.417-.083.667-.25.75-.5.167-.333.5-.5 1-.5.167-.167.292-.333.375-.5.167-.25.333-.458.5-.625.5-.083.833.042 1 .375l.75.75c.417 0 .708-.125.875-.375.25-.333.5-.375.75-.125.583.167 1.083.125 1.5-.125.5-.25.958-.208 1.375.125 1.5-.583 2.458-.792 2.875-.625.5.083 1.042.125 1.625.125 1.833-.083 3.292.083 4.375.5a7.75 7.75 0 0 0 3.375.5c1.333.833 2.042 1.542 2.125 2.125.583.25.958.542 1.125.875l1 1c.167.167.417.25.75.25s.583.083.75.25c-.417 1.25-.417 2.042 0 2.375.5.25.542.5.125.75.167.333.375.583.625.75.25.083.458.25.625.5-.167.833-.125 1.542.125 2.125.333.5.542 1.042.625 1.625a4.37 4.37 0 0 1-.25 1.375 3.17 3.17 0 0 0 0 1.25c.083.583.25 1.167.5 1.75.25.5.417 1.042.5 1.625zm-8.875 1.5c-.083-.417-.292-.583-.625-.5-.25 0-.375-.25-.375-.75 0-1.25-.167-2.375-.5-3.375.25-.25.375-.667.375-1.25a12.41 12.41 0 0 0-.125-1.75c-.083-.667-.208-1.25-.375-1.75l-.375-1c-.5-.167-.917-.458-1.25-.875-.25-.5-.625-.833-1.125-1-.167-.083-.417-.083-.75 0-.25.083-.458.083-.625 0-.583-.667-1.167-.917-1.75-.75s-1.208.167-1.875 0c-.25 0-.542-.083-.875-.25-.25-.25-.458-.333-.625-.25-.75.5-1.375.708-1.875.625a2.16 2.16 0 0 0-1.25.125c-.417.167-.833.458-1.25.875-.333.333-.792.542-1.375.625l-1.125 1.625c-.333.583-.333 1.208 0 1.875-.917.417-1.5.875-1.75 1.375l-.75 1.5c-.25.417-.417.875-.5 1.375s.042 1 .375 1.5c-.75 1.083-1.083 2.333-1 3.75.083 1.333-.167 2.5-.75 3.5.5 1 .833 1.917 1 2.75l.75 2.25 1.125 2.25c.417.667 1.083 1.458 2 2.375.417-.083.875-.042 1.375.125s1 .25 1.5.25c.667 0 1.333-.083 2-.25.75-.25 1.417-.542 2-.875 1-.083 1.958-.292 2.875-.625.917-.417 1.583-1.167 2-2.25.5-.417.917-.833 1.25-1.25A10.74 10.74 0 0 1 174 77.5c.5-1 .75-1.667.75-2 .083-.333.292-.625.625-.875.083-.417.042-.667-.125-.75-.083-.167-.125-.417-.125-.75.583-.417.917-1.042 1-1.875.167-.917.417-1.708.75-2.375zM231.5 72c.167 1.75.25 3.625.25 5.625.083 2-.333 3.792-1.25 5.375-.333 1-.542 1.792-.625 2.375a1.2 1.2 0 0 1-.875 1c.083.75-.042 1.25-.375 1.5s-.667.625-1 1.125c-.5 0-1.042.083-1.625.25l-1.5.5c-.333.667-.583.917-.75.75s-.417-.167-.75 0c-.833.583-1.625.875-2.375.875H219a6.57 6.57 0 0 1-1 .625c-.25.25-.417.625-.5 1.125-.417.167-.667.083-.75-.25-.083-.25-.292-.417-.625-.5-.75.333-1.292.333-1.625 0-.25-.333-.667-.5-1.25-.5-.333 0-.708.083-1.125.25a4.88 4.88 0 0 1-1.125.625c-.333.167-.708.25-1.125.25-.333.083-.667-.042-1-.375-.417 0-.708.125-.875.375-.083.25-.333.375-.75.375-.917-.083-1.792-.208-2.625-.375-.833-.083-1.708-.042-2.625.125-.167-.417-.542-.667-1.125-.75h-1.25c-.083-.333-.292-.5-.625-.5-.25 0-.375-.167-.375-.5-.333.167-.833.042-1.5-.375l-1.375-.75c-.333-.417-.792-.917-1.375-1.5s-.917-.958-1-1.125c-.167-.25-.25-.542-.25-.875.083-.417-.083-.708-.5-.875 0-.583-.042-.958-.125-1.125 0-.25-.042-.417-.125-.5-.083-.167-.208-.292-.375-.375-.167-.167-.375-.458-.625-.875.167-.417.125-.833-.125-1.25-.167-.5-.125-.958.125-1.375-.25-.25-.417-.667-.5-1.25v-2c.083-.75.208-1.458.375-2.125l.375-1.5c.75-.417 1.417-.917 2-1.5a6.87 6.87 0 0 1 2.125-1.625 17.48 17.48 0 0 0 2.5.875c1 .167 1.75.583 2.25 1.25-.25.583-.292 1.083-.125 1.5.25.333.208.667-.125 1 0 .833-.292 1.292-.875 1.375a3.17 3.17 0 0 0 0 1.25c.167.417.083.792-.25 1.125.333.667.417 1.083.25 1.25-.083.083-.083.208 0 .375.083.417.292.792.625 1.125.333.25.5.667.5 1.25.75.667 1.583 1.125 2.5 1.375a21.35 21.35 0 0 1 2.75.875c.25-.083.542-.125.875-.125.417 0 .625-.208.625-.625.417.167.917.25 1.5.25.583-.083 1.042-.333 1.375-.75a11.54 11.54 0 0 1 1.625.125c.667.083 1.292.125 1.875.125.667 0 1.25-.083 1.75-.25.583-.167 1-.542 1.25-1.125 1.083 0 1.875-.167 2.375-.5.583-.333 1.042-.708 1.375-1.125l.875-1.375c.333-.5.792-.875 1.375-1.125 0-.5.083-.875.25-1.125.25-.333.292-.833.125-1.5-.083-.5-.375-.792-.875-.875s-.917-.292-1.25-.625c-.167-.917-.583-1.542-1.25-1.875s-1.292-.833-1.875-1.5c-1 .167-1.708.125-2.125-.125s-1.042-.583-1.875-1a4.88 4.88 0 0 0-1-.375 4.88 4.88 0 0 1-1-.375c-.417-.083-.708-.042-.875.125s-.417.375-.75.625c-.167-.417-.417-.667-.75-.75l-1-.5h-3c-1.083-.083-2-.458-2.75-1.125a4.11 4.11 0 0 0-1-.125c-.25 0-.542-.042-.875-.125-.25-.833-.792-1.25-1.625-1.25-.167-.333-.333-.625-.5-.875-.083-.25-.333-.333-.75-.25a7.07 7.07 0 0 0-.375-1.25c-.167-.417-.5-.667-1-.75a6.26 6.26 0 0 0-.625-2.125 6.26 6.26 0 0 1-.625-2.125c.167-1 .208-1.583.125-1.75-.083-.25-.125-.458-.125-.625.083-1.083.333-2.125.75-3.125s.667-2.042.75-3.125a1.5 1.5 0 0 0 1-1 11.43 11.43 0 0 0 .375-1.375c.833-.25 1.25-.833 1.25-1.75.667.083 1.125-.042 1.375-.375s.583-.667 1-1c.417.167.75.125 1-.125s.542-.458.875-.625c.417-.167.792-.208 1.125-.125a1.41 1.41 0 0 0 1-.125l1.125-.5c.333-.25.708-.417 1.125-.5h.625c.5-.083 1.042-.125 1.625-.125h1.625l.875-.125c.667.083 1.292.208 1.875.375a5.41 5.41 0 0 0 2 .125c.5 0 1-.125 1.5-.375s1.042-.292 1.625-.125c.333.333.625.75.875 1.25.5 0 .875.083 1.125.25s.458.375.625.625c.25.25.458.5.625.75.25.167.583.25 1 .25 0 .333.125.667.375 1 .25.25.458.5.625.75.5.5.75 1.167.75 2l.25 2.25c-.25.25-.542.5-.875.75-.25.167-.458.417-.625.75-.167.25-.333.583-.5 1-.083.333-.333.458-.75.375-.583.833-.958 1.167-1.125 1a1.56 1.56 0 0 0-.375-.625c-.083-.167-.25-.25-.5-.25-.25-.083-.667.125-1.25.625-.583-.667-1.167-1.167-1.75-1.5-.5-.417-.833-1.125-1-2.125-.333-.333-.833-.5-1.5-.5-.583 0-1.042-.208-1.375-.625-.417.083-1.042.25-1.875.5s-1.458.167-1.875-.25c-.417-.083-.708.042-.875.375-.083.333-.458.417-1.125.25-.25.167-.417.375-.5.625a1.56 1.56 0 0 1-.375.625c-.75.083-1.417.583-2 1.5-.583.833-.792 1.625-.625 2.375-.667 1.167-.917 1.875-.75 2.125.25.167.5.417.75.75.667.833 1.208 1.208 1.625 1.125s1.042.083 1.875.5c.917-.083 1.583 0 2 .25l1.125.5a6.83 6.83 0 0 1 .875-.375 2.78 2.78 0 0 0 .875-.375 15.64 15.64 0 0 0 2.5 1 9.95 9.95 0 0 1 2.5.875c.417.167.75.333 1 .5l1.125.5 1.5.5c.333.083.5.333.5.75.833-.167 1.458-.042 1.875.375s.958.667 1.625.75c.417.417.958 1.042 1.625 1.875s1.25 1.333 1.75 1.5c.083.667.333 1.167.75 1.5.417.25.833.625 1.25 1.125zm35-23.125c-.333.583-.667.917-1 1s-.417.542-.25 1.375c-.417.167-.833.417-1.25.75l-1.125.75c-.417-.25-1-.375-1.75-.375l-2.5.125-2.5.375L254 53a27.8 27.8 0 0 1-.125 5.875c-.167 2-.167 3.958 0 5.875a2.37 2.37 0 0 0 .125.75c.167.25.125.458-.125.625.167.417.167.917 0 1.5A6.59 6.59 0 0 1 253.5 69a5.27 5.27 0 0 0 1 1.375c0 .417-.083 1.125-.25 2.125-.083 1-.208 1.625-.375 1.875 0 .333.042.875.125 1.625.167.75.333 1.208.5 1.375-.083.833-.083 1.375 0 1.625a5.99 5.99 0 0 0 .375.625c-.25.417-.375.875-.375 1.375v1.375c.083.417.125.833.125 1.25.083.417.042.75-.125 1 .417.167.583.708.5 1.625 0 .833.208 1.417.625 1.75.5.167.958.458 1.375.875.5.417.958.708 1.375.875.667.583 1.042 1 1.125 1.25.167.25.208.5.125.75a3.69 3.69 0 0 1-.125.875c-.083.333-.042.792.125 1.375-.417.333-.75.708-1 1.125s-.583.792-1 1.125c-.917-.083-1.583.042-2 .375s-.833.5-1.25.5c-.583-.667-1.042-1-1.375-1-.25.083-.542 0-.875-.25-.5-.167-.75-.375-.75-.625.083-.25 0-.458-.25-.625-.333-.25-.583-.292-.75-.125-.167.25-.375.333-.625.25-.333-.5-.625-1.042-.875-1.625-.167-.583-.542-1-1.125-1.25-.417-.167-.667-.417-.75-.75a2.37 2.37 0 0 1-.125-.75 2.78 2.78 0 0 0-.125-.875c-.083-.25-.333-.417-.75-.5.333-.333.375-.625.125-.875s-.375-.458-.375-.625c.083-1.167.042-1.875-.125-2.125-.083-.333-.125-.667-.125-1 .083-.417.167-.708.25-.875.167-.25.208-.625.125-1.125-.333-1-.458-1.625-.375-1.875.083-.333.125-.667.125-1l-.25-.875v-.875c-.083-1-.083-2 0-3a7.29 7.29 0 0 0-.125-3c-.083-.583-.042-1.208.125-1.875.25-.667.167-1.25-.25-1.75-.167-1.167-.083-1.958.25-2.375.417-.5.417-.958 0-1.375.167-.417.167-.875 0-1.375a3.82 3.82 0 0 1 0-1.375l-.125-.75V59c0-.667-.042-1.25-.125-1.75v-.875c.167-.917.167-1.542 0-1.875-.167-.417-.042-.833.375-1.25a.69.69 0 0 0-.875-.125c-.25.083-.458-.083-.625-.5-.5.25-1.375.5-2.625.75s-2.167.375-2.75.375c-1.083-.5-1.708-.667-1.875-.5s-.333.25-.5.25c-.417-.083-.958-.333-1.625-.75-.583-.417-.958-.792-1.125-1.125-.083-1-.167-1.583-.25-1.75l-.25-.5c-.083-.5-.042-1 .125-1.5a2.7 2.7 0 0 0 .25-1.625c.417-.167.75-.375 1-.625s.583-.458 1-.625c1.083.417 2.125.542 3.125.375l3.125-.625c.5.333 1.208.5 2.125.5.917-.083 1.583-.375 2-.875 0-1.833.125-3.708.375-5.625l-1-2.75.5-5.25.125-4.25.25-4.375c-.167-.25-.292-.542-.375-.875-.083-.417-.25-.708-.5-.875.417-.417.583-1 .5-1.75 0-.833.208-1.5.625-2 .083-.417-.042-.667-.375-.75s-.542-.25-.625-.5c-.25-1.167-.083-2.083.5-2.75l1.875-2h1.625a1.68 1.68 0 0 1 1.5.5c.167-.167.333-.292.5-.375l.75-.5c.167 0 .292.208.375.625s.25.708.5.875c.167.167.417.542.75 1.125.333.5.542.875.625 1.125 0 .833.042 1.333.125 1.5a.53.53 0 0 1 0 .5c0 .25-.083.5-.25.75-.167.167-.25.375-.25.625a5.41 5.41 0 0 0 .125 2c.167.583.25 1.208.25 1.875 0 .417-.083.792-.25 1.125-.083.25-.042.667.125 1.25l.25 2.125a1.16 1.16 0 0 0 0 .75 2.37 2.37 0 0 1 .125.75c0 .5-.083.917-.25 1.25-.167.25-.208.708-.125 1.375.167.667.208 1.083.125 1.25-.083.083-.125.458-.125 1.125v1.125c.083.5.125 1.042.125 1.625s-.042 1.083-.125 1.5c0 .417-.125.667-.375.75.333 1.083.417 1.75.25 2a2.78 2.78 0 0 0-.125.875 6.83 6.83 0 0 0 .125 2.25c.25.75.458 1.542.625 2.375.417 0 .792.042 1.125.125s.667 0 1-.25c1.417.5 2.5.667 3.25.5.75-.25 1.792-.458 3.125-.625L266 46.75c.833.5 1 1.208.5 2.125zM308 88.25l-1.25 2.5c-.417.833-1.125 1.375-2.125 1.625-.583.917-1.042 1.458-1.375 1.625-.333.25-.667.333-1 .25s-.708-.292-1.125-.625c-.333-.25-.833-.458-1.5-.625-.25-.833-.667-1.5-1.25-2-.5-.5-.958-1.083-1.375-1.75l.375-1.875a14.74 14.74 0 0 1 .625-1.75c-.083-.417-.333-.583-.75-.5-.333 0-.583-.083-.75-.25-.25 0-.542.167-.875.5l-.75.75c-.75.167-1.292.417-1.625.75l-.625.875c-.917.083-1.625.333-2.125.75-.5.333-1.208.417-2.125.25a1.64 1.64 0 0 0-.75.75 1.56 1.56 0 0 1-.375.625c-.833.333-1.417.5-1.75.5-.25-.083-.458-.083-.625 0l-1.875.75c-.5.333-1.083.25-1.75-.25-.333.417-.667.5-1 .25-.333-.167-.625-.083-.875.25-.5-.083-.875-.208-1.125-.375-.167-.167-.583-.208-1.25-.125-.417.083-.667-.042-.75-.375 0-.333-.167-.542-.5-.625-.333-.167-.667-.25-1-.25a2.36 2.36 0 0 1-.75-.125c-.167-.5-.458-.75-.875-.75s-.792-.083-1.125-.25c-.167-.5-.333-.708-.5-.625-.167 0-.417-.125-.75-.375-.5-.333-.875-.75-1.125-1.25-.25-.583-.708-.958-1.375-1.125a6.28 6.28 0 0 1-.875-2.75c0-1-.208-1.917-.625-2.75.333-.25.542-.625.625-1.125s.125-1 .125-1.5l.25-1.375a2.28 2.28 0 0 1 .75-1c-.167-.583-.125-1 .125-1.25.25-.333.333-.708.25-1.125.667-.333 1.083-.875 1.25-1.625.25-.833.75-1.333 1.5-1.5-.083-.583.125-1.25.625-2 .583-.833 1.167-1.208 1.75-1.125.417-.5.917-.917 1.5-1.25.583-.417 1-.958 1.25-1.625.417 0 .708-.167.875-.5.25-.333.5-.583.75-.75.167-.167.417-.208.75-.125.333 0 .625-.042.875-.125.583-.333 1.375-.583 2.375-.75l1.625-.25c.917.167 1.5.208 1.75.125a4.87 4.87 0 0 0 .625-.25c.583.417 1.167.542 1.75.375.667-.25 1.292-.375 1.875-.375 1.25.167 2.042.208 2.375.125a2.16 2.16 0 0 1 1.25-.125c.25 0 .5.083.75.25a2.36 2.36 0 0 0 .75.125c.583.167 1.125.167 1.625 0 .583-.167 1.167-.167 1.75 0-.083-.75-.125-1.667-.125-2.75 0-1.167-.5-1.875-1.5-2.125-.083-.333-.167-.583-.25-.75a2.78 2.78 0 0 1-.125-.875c-.167-.083-.417-.25-.75-.5s-.708-.5-1.125-.75c-.333-.25-.625-.5-.875-.75s-.375-.458-.375-.625c-.917-.167-1.792-.125-2.625.125-.75.167-1.583.208-2.5.125-.583.583-1.375.958-2.375 1.125-.917.167-1.708.458-2.375.875-.667.75-1.417 1.417-2.25 2-.75.583-1.5.958-2.25 1.125s-1.458.042-2.125-.375-1.292-1.208-1.875-2.375a8.78 8.78 0 0 0-.625-1.25 4.37 4.37 0 0 1-.25-1.375c.417-.667.583-1.083.5-1.25 0-.167.042-.333.125-.5.833-.667 1.333-1.125 1.5-1.375s.375-.5.625-.75a4.97 4.97 0 0 1 .75-.625 1.64 1.64 0 0 0 .75-.75c.5 0 1.333-.25 2.5-.75l2.875-1c.417-.083 1-.167 1.75-.25.833-.083 1.417-.292 1.75-.625.5.167.833.333 1 .5s.583.125 1.25-.125c.25-.167.5-.292.75-.375a2.78 2.78 0 0 1 .875-.375c.5-.083.875-.042 1.125.125.333.083.75-.125 1.25-.625.583-.167 1.208-.125 1.875.125a4.06 4.06 0 0 0 2 0c.167.417.417.625.75.625.417 0 .542.292.375.875a1.6 1.6 0 0 1 1 .625c.25.25.583.458 1 .625 0 .333.083.583.25.75a1.57 1.57 0 0 0 .625.375c.25.083.417.208.5.375.167.167.167.417 0 .75l1.25 1.5c.5.5 1.083.958 1.75 1.375-.25.25-.25.5 0 .75s.375.542.375.875c.167.25.25.625.25 1.125 0 .417.125.667.375.75V56c.083.5.125 1.042.125 1.625l.25 1.5c.083.5.167.875.25 1.125.5 1.333.75 2.292.75 2.875a3.13 3.13 0 0 1-.375.75 5.99 5.99 0 0 1-.375.625c-.083.417-.125 1-.125 1.75v2.25a20.44 20.44 0 0 1 .125 2.25c0 .667-.083 1.167-.25 1.5.5 1.417.708 2.917.625 4.5 0 1.583.208 3.083.625 4.5-.25.167-.333.458-.25.875s-.042.708-.375.875c0 .333.083.583.25.75.25.083.375.292.375.625-.417 0-.583.208-.5.625s.042.708-.125.875a3.92 3.92 0 0 0 .5 1.25c.25.333.458.708.625 1.125zM298.375 72l-2-2a8.62 8.62 0 0 0-2.25-1.625c-.5.25-1 .292-1.5.125-.5-.25-1-.375-1.5-.375-.417 0-.833.125-1.25.375a7.12 7.12 0 0 1-1.25.375c-1.083-.167-1.792-.125-2.125.125-.25.167-.5.125-.75-.125a1.64 1.64 0 0 1-.75.75c-.25.167-.458.375-.625.625h-1.75c-.25.167-.375.417-.375.75s-.208.583-.625.75c-.583.167-1.042.417-1.375.75s-.75.542-1.25.625a20.65 20.65 0 0 1-1.125 2.375l-1.25 2.25c.167.667.167 1.167 0 1.5l-.75 1.375c.75.917 1.583 1.583 2.5 2l2.125.625a1.54 1.54 0 0 0 .875-.25 1.54 1.54 0 0 1 .875-.25c.667.167 1.083.208 1.25.125l.625-.375c.667-.167 1.292-.25 1.875-.25h1.875c.583-.333.917-.625 1-.875.167-.333.375-.583.625-.75h1.5c-.167-.417-.083-.625.25-.625.417-.083.792-.125 1.125-.125.417-.833 1.042-1.417 1.875-1.75.917-.333 1.75-.708 2.5-1.125l1.125-.875c.167-.167.333-.292.5-.375v-1.875c.083-.583.083-1.208 0-1.875zm63.375-9.375c.083.667.042 1.542-.125 2.625-.083 1.083-.292 1.875-.625 2.375-.917 1.417-1.708 2.375-2.375 2.875l-1.75 1a6.57 6.57 0 0 0-1 .625l-1 .75a1.41 1.41 0 0 1-1 .125c-.917.583-1.458.792-1.625.625-.083-.167-.292-.25-.625-.25-.417.25-.833.417-1.25.5l-1.125.25c-1.25.5-2.292.75-3.125.75a2.04 2.04 0 0 0-1.875.75c-.667-.333-1.375-.583-2.125-.75a11.2 11.2 0 0 1-2-1c.083-.583-.042-1.083-.375-1.5-.25-.5-.417-1.042-.5-1.625a2.04 2.04 0 0 1 0-1c.167-.333.167-.708 0-1.125.417 0 .708-.125.875-.375l.5-1L342 67c.5-.083.833-.333 1-.75.333 0 .708.042 1.125.125.417 0 .708.208.875.625 1-.583 1.583-.792 1.75-.625s.375.208.625.125c.667-.167 1.25-.417 1.75-.75s1.125-.5 1.875-.5c.25-.417.542-.792.875-1.125.417-.417.5-.917.25-1.5-.167-.917-.333-1.375-.5-1.375l-.25-.25c-.167-1.083-.375-1.792-.625-2.125l-.75-1c-.667.167-1.25.125-1.75-.125s-1.042-.375-1.625-.375c-.417 0-.75.083-1 .25-.25.083-.542-.083-.875-.5-1 .25-1.583.458-1.75.625a1.11 1.11 0 0 1-.5.125c-.167 0-.417-.083-.75-.25-.25-.167-.458-.083-.625.25a1.6 1.6 0 0 0-1 .625c-.167.25-.375.5-.625.75-.5-.083-.958-.042-1.375.125s-.875.208-1.375.125a3.19 3.19 0 0 0-1.375 1.75c-.417-.167-.75-.167-1 0s-.458.375-.625.625l-.625.875a1.2 1.2 0 0 1-.875.375L332 64c-.083.167-.083.417 0 .75-.417.167-.792.458-1.125.875-.25.333-.583.625-1 .875-.167.417-.25.875-.25 1.375a4.71 4.71 0 0 1-.25 1.5c-.333.5-.5.833-.5 1 .083.083.083.208 0 .375-.25.75-.417 1.167-.5 1.25s-.125.167-.125.25c-.167 1.167-.208 2.208-.125 3.125.167.833.25 1.708.25 2.625 0 .5.167.833.5 1s.5.458.5.875c-.5.083-.583.333-.25.75.333.333.333.667 0 1l.625 1.75c.25.667.583 1.083 1 1.25.167.417.125.792-.125 1.125s-.292.833-.125 1.5l-1.125 1.375.25.875c-1.083-.417-1.833-.375-2.25.125-.333.5-.875.917-1.625 1.25-.417-.25-.875-.375-1.375-.375-.417-.083-.833-.25-1.25-.5s-.75-.625-1-1.125c-.167-.5-.375-.917-.625-1.25-.75-.75-1.125-1.167-1.125-1.25 0-.167-.292-.5-.875-1 .5-.833.625-1.292.375-1.375-.167-.167-.292-.583-.375-1.25 0-.25.042-.458.125-.625a2.37 2.37 0 0 0 .125-.75c-.083-.833-.083-1.333 0-1.5.167-.25.25-.458.25-.625.083-.75 0-1.5-.25-2.25s-.167-1.458.25-2.125a2.28 2.28 0 0 0-.75-1c-.25-.25-.458-.542-.625-.875.25-.75.208-1.5-.125-2.25-.333-.833-.542-1.625-.625-2.375a1.16 1.16 0 0 1 0-.75c.083-.333.083-.625 0-.875-.417-.833-.583-1.292-.5-1.375s.083-.208 0-.375c-.167-.75-.375-1.25-.625-1.5-.25-.333-.292-.792-.125-1.375-.25-.167-.417-.333-.5-.5a1.56 1.56 0 0 0-.375-.625c.083-.75 0-1.375-.25-1.875-.167-.583-.375-1.125-.625-1.625-.25-.583-.458-1.208-.625-1.875s-.167-1.458 0-2.375l-1.125-1.125c.167-1.25.625-2.208 1.375-2.875.833-.75 1.458-1.167 1.875-1.25.417 0 .75.083 1 .25l1 .5A5.11 5.11 0 0 0 320 49c.667 0 1.25.167 1.75.5.167.25.25.542.25.875.083.25.292.417.625.5l.25 1.75c.083.917.292 1.875.625 2.875l.75 1.875c-.167.833 0 1.5.5 2 .25-.083.542-.292.875-.625a11.42 11.42 0 0 0 .875-1.25c.333-.5.667-.917 1-1.25.333-.417.625-.625.875-.625.417-.667.958-1.208 1.625-1.625s1.208-1 1.625-1.75l1.5-.5a1.54 1.54 0 0 0 1.125-1.125c.25.083.667.083 1.25 0s1.208-.208 1.875-.375l1.75-.625c.583-.25.958-.5 1.125-.75.75.167 1.458.125 2.125-.125a5.65 5.65 0 0 1 2.375-.25 7.12 7.12 0 0 1 1.25.375c.5.167.958.292 1.375.375h.75c.333-.083.625-.083.875 0 .583.083 1 .292 1.25.625.333.333.792.542 1.375.625.417.083.875.083 1.375 0 .583-.167 1.083-.167 1.5 0 .333.167.583.375.75.625s.458.458.875.625l1.25 1.375c.25.25.458.5.625.75-.167.917 0 1.667.5 2.25l1.5 1.75c0 .583.083 1.208.25 1.875.25.583.417 1.167.5 1.75.083.25.25.458.5.625a.75.75 0 0 1 .5.5z" fill="#fff"/></svg>